<svg width="614" height="1024" viewBox="0 0 614 1024" fill="none" xmlns="http://www.w3.org/2000/svg">
<g clip-path="url(#clip0_40_74)">
<rect width="614" height="1024" fill="#2D2D2A"/>
<path d="M614.009 0H0V1024H614.009V0Z" fill="white"/>
<path d="M102.335 0H0V102.4H102.335V0Z" fill="#2E5266"/>
<path d="M51.1674 0L102.335 51.2L51.1674 102.4L0 51.2L51.1674 0Z" fill="#D3D0CB"/>
<path d="M204.67 0H102.335V102.4H204.67V0Z" fill="#9FB1BC"/>
<path d="M102.335 102.4C102.335 75.2418 113.117 49.196 132.308 29.9923C151.5 10.7885 177.529 0 204.67 0L102.335 102.4C129.476 102.4 155.505 91.6115 174.697 72.4077C193.888 53.204 204.67 27.1582 204.67 0" fill="#9FB1BC"/>
<path d="M307.005 0H204.67V102.4H307.005V0Z" fill="#9FB1BC"/>
<path d="M255.837 102.4C284.096 102.4 307.005 79.477 307.005 51.2C307.005 22.923 284.096 0 255.837 0C227.578 0 204.67 22.923 204.67 51.2C204.67 79.477 227.578 102.4 255.837 102.4Z" fill="#FFA400"/>
<path d="M409.339 0H307.005V102.4H409.339V0Z" fill="#FFA400"/>
<path d="M358.172 102.4C386.431 102.4 409.339 79.477 409.339 51.2C409.339 22.923 386.431 0 358.172 0C329.913 0 307.005 22.923 307.005 51.2C307.005 79.477 329.913 102.4 358.172 102.4Z" fill="#2E5266"/>
<path d="M511.674 0H409.339V102.4H511.674V0Z" fill="#2E5266"/>
<path fill-rule="evenodd" clip-rule="evenodd" d="M460.507 102.4C488.766 102.4 511.674 79.4767 511.674 51.2C511.674 22.923 488.766 0 460.507 0C432.248 0 409.339 22.923 409.339 51.2C409.339 79.4767 432.248 102.4 460.507 102.4ZM460.507 87.04C480.288 87.04 496.324 70.9939 496.324 51.2C496.324 31.4061 480.288 15.36 460.507 15.36C440.726 15.36 424.69 31.4061 424.69 51.2C424.69 70.9939 440.726 87.04 460.507 87.04Z" fill="#FFA400"/>
<path d="M614.009 0H511.674V102.4H614.009V0Z" fill="#2E5266"/>
<path fill-rule="evenodd" clip-rule="evenodd" d="M562.842 102.4C591.1 102.4 614.009 79.4767 614.009 51.2C614.009 22.923 591.1 0 562.842 0C534.583 0 511.674 22.923 511.674 51.2C511.674 79.4767 534.583 102.4 562.842 102.4ZM562.842 87.04C582.623 87.04 598.659 70.9939 598.659 51.2C598.659 31.4061 582.623 15.36 562.842 15.36C543.06 15.36 527.025 31.4061 527.025 51.2C527.025 70.9939 543.06 87.04 562.842 87.04Z" fill="#2E5266"/>
<path d="M102.335 102.4H0V204.8H102.335V102.4Z" fill="#FFA400"/>
<path d="M51.1674 204.8C79.4264 204.8 102.335 181.877 102.335 153.6C102.335 125.323 79.4264 102.4 51.1674 102.4C22.9084 102.4 0 125.323 0 153.6C0 181.877 22.9084 204.8 51.1674 204.8Z" fill="#2E5266"/>
<path d="M204.67 102.4H102.335V204.8H204.67V102.4Z" fill="#2E5266"/>
<path fill-rule="evenodd" clip-rule="evenodd" d="M153.502 204.8C181.761 204.8 204.67 181.877 204.67 153.6C204.67 125.323 181.761 102.4 153.502 102.4C125.243 102.4 102.335 125.323 102.335 153.6C102.335 181.877 125.243 204.8 153.502 204.8ZM153.502 189.44C173.284 189.44 189.319 173.394 189.319 153.6C189.319 133.806 173.284 117.76 153.502 117.76C133.721 117.76 117.685 133.806 117.685 153.6C117.685 173.394 133.721 189.44 153.502 189.44Z" fill="#6E8898"/>
<path d="M307.005 102.4H204.67V204.8H307.005V102.4Z" fill="#D3D0CB"/>
<path d="M255.837 204.8C284.096 204.8 307.005 181.877 307.005 153.6C307.005 125.323 284.096 102.4 255.837 102.4C227.578 102.4 204.67 125.323 204.67 153.6C204.67 181.877 227.578 204.8 255.837 204.8Z" fill="#FFA400"/>
<path d="M409.339 102.4H307.005V204.8H409.339V102.4Z" fill="#2E5266"/>
<path d="M307.005 102.4C334.146 102.4 360.175 113.189 379.366 132.392C398.558 151.596 409.339 177.642 409.339 204.8L307.005 102.4C307.005 129.558 317.786 155.604 336.978 174.808C356.169 194.011 382.199 204.8 409.339 204.8" fill="#6E8898"/>
<path d="M511.674 102.4H409.339V204.8H511.674V102.4Z" fill="#FFA400"/>
<path d="M460.507 102.4L511.674 153.6L460.507 204.8L409.339 153.6L460.507 102.4Z" fill="#2E5266"/>
<path d="M614.009 102.4H511.674V204.8H614.009V102.4Z" fill="#6E8898"/>
<path d="M511.674 204.8C511.674 177.642 522.456 151.596 541.648 132.392C560.839 113.189 586.868 102.4 614.009 102.4V204.8" fill="#D3D0CB"/>
<path d="M102.335 204.8H0V307.2H102.335V204.8Z" fill="#D3D0CB"/>
<path d="M51.1674 204.8L102.335 256L51.1674 307.2L0 256L51.1674 204.8Z" fill="#FFA400"/>
<path d="M204.67 204.8H102.335V307.2H204.67V204.8Z" fill="#6E8898"/>
<path d="M102.335 307.2C102.335 280.042 113.117 253.996 132.308 234.792C151.5 215.589 177.529 204.8 204.67 204.8L102.335 307.2C129.476 307.2 155.505 296.411 174.697 277.208C193.888 258.004 204.67 231.958 204.67 204.8" fill="#FFA400"/>
<path d="M307.005 204.8H204.67V307.2H307.005V204.8Z" fill="#2E5266"/>
<path d="M255.837 307.2C284.096 307.2 307.005 284.277 307.005 256C307.005 227.723 284.096 204.8 255.837 204.8C227.578 204.8 204.67 227.723 204.67 256C204.67 284.277 227.578 307.2 255.837 307.2Z" fill="#FFA400"/>
<path d="M409.339 204.8H307.005V307.2H409.339V204.8Z" fill="#6E8898"/>
<path d="M358.172 307.2C386.431 307.2 409.339 284.277 409.339 256C409.339 227.723 386.431 204.8 358.172 204.8C329.913 204.8 307.005 227.723 307.005 256C307.005 284.277 329.913 307.2 358.172 307.2Z" fill="#FFA400"/>
<path d="M511.674 204.8H409.339V307.2H511.674V204.8Z" fill="#9FB1BC"/>
<path d="M460.507 204.8L511.674 256L460.507 307.2L409.339 256L460.507 204.8Z" fill="#D3D0CB"/>
<path d="M614.009 204.8H511.674V307.2H614.009V204.8Z" fill="#FFA400"/>
<path d="M562.842 204.8L614.009 256L562.842 307.2L511.674 256L562.842 204.8Z" fill="#6E8898"/>
<path d="M102.335 307.2H0V409.6H102.335V307.2Z" fill="#6E8898"/>
<path d="M0 409.6C27.1409 409.6 53.1702 398.811 72.3617 379.608C91.5532 360.404 102.335 334.358 102.335 307.2H0" fill="#6E8898"/>
<path d="M204.67 307.2H102.335V409.6H204.67V307.2Z" fill="#FFA400"/>
<path d="M153.502 307.2L204.67 358.4L153.502 409.6L102.335 358.4L153.502 307.2Z" fill="#6E8898"/>
<path d="M307.005 307.2H204.67V409.6H307.005V307.2Z" fill="#D3D0CB"/>
<path d="M255.837 307.2L307.005 358.4L255.837 409.6L204.67 358.4L255.837 307.2Z" fill="#9FB1BC"/>
<path d="M409.339 307.2H307.005V409.6H409.339V307.2Z" fill="#D3D0CB"/>
<path d="M307.005 409.6C307.005 382.442 317.786 356.396 336.978 337.192C356.169 317.989 382.199 307.2 409.339 307.2L307.005 409.6C334.146 409.6 360.175 398.811 379.366 379.608C398.558 360.404 409.339 334.358 409.339 307.2" fill="#2E5266"/>
<path d="M511.674 307.2H409.339V409.6H511.674V307.2Z" fill="#6E8898"/>
<path d="M460.507 307.2L511.674 358.4L460.507 409.6L409.339 358.4L460.507 307.2Z" fill="#2E5266"/>
<path d="M614.009 307.2H511.674V409.6H614.009V307.2Z" fill="#2E5266"/>
<path d="M562.842 409.6C591.101 409.6 614.009 386.677 614.009 358.4C614.009 330.123 591.101 307.2 562.842 307.2C534.583 307.2 511.674 330.123 511.674 358.4C511.674 386.677 534.583 409.6 562.842 409.6Z" fill="#9FB1BC"/>
<path d="M102.335 409.6H0V512H102.335V409.6Z" fill="#D3D0CB"/>
<path d="M51.1674 512C79.4264 512 102.335 489.077 102.335 460.8C102.335 432.523 79.4264 409.6 51.1674 409.6C22.9084 409.6 0 432.523 0 460.8C0 489.077 22.9084 512 51.1674 512Z" fill="#9FB1BC"/>
<path d="M204.67 409.6H102.335V512H204.67V409.6Z" fill="#9FB1BC"/>
<path d="M102.335 409.6C115.774 409.6 129.081 412.249 141.497 417.395C153.913 422.541 165.194 430.084 174.697 439.592C184.199 449.101 191.737 460.389 196.88 472.813C202.023 485.237 204.67 498.553 204.67 512H102.335" fill="#6E8898"/>
<path d="M307.005 409.6H204.67V512H307.005V409.6Z" fill="#2E5266"/>
<path d="M204.67 409.6C218.108 409.6 231.416 412.249 243.832 417.395C256.247 422.541 267.529 430.084 277.031 439.592C286.534 449.101 294.072 460.389 299.215 472.813C304.358 485.237 307.005 498.553 307.005 512L204.67 409.6C204.67 436.758 215.451 462.804 234.643 482.008C253.834 501.211 279.864 512 307.005 512" fill="#D3D0CB"/>
<path d="M409.339 409.6H307.005V512H409.339V409.6Z" fill="#2E5266"/>
<path fill-rule="evenodd" clip-rule="evenodd" d="M358.172 512C386.431 512 409.339 489.077 409.339 460.8C409.339 432.523 386.431 409.6 358.172 409.6C329.913 409.6 307.005 432.523 307.005 460.8C307.005 489.077 329.913 512 358.172 512ZM358.172 496.64C377.953 496.64 393.989 480.594 393.989 460.8C393.989 441.006 377.953 424.96 358.172 424.96C338.391 424.96 322.355 441.006 322.355 460.8C322.355 480.594 338.391 496.64 358.172 496.64Z" fill="#2E5266"/>
<path d="M511.674 409.6H409.339V512H511.674V409.6Z" fill="#6E8898"/>
<path d="M409.339 409.6C422.778 409.6 436.085 412.249 448.501 417.395C460.917 422.541 472.198 430.084 481.701 439.592C491.204 449.101 498.742 460.389 503.884 472.813C509.027 485.237 511.674 498.553 511.674 512L409.339 409.6C409.339 423.047 411.986 436.363 417.129 448.787C422.272 461.211 429.81 472.499 439.313 482.008C448.815 491.516 460.097 499.059 472.512 504.205C484.928 509.351 498.235 512 511.674 512" fill="#2E5266"/>
<path d="M614.009 409.6H511.674V512H614.009V409.6Z" fill="#2E5266"/>
<path d="M562.842 409.6L614.009 460.8L562.842 512L511.674 460.8L562.842 409.6Z" fill="#6E8898"/>
<path d="M102.335 512H0V614.4H102.335V512Z" fill="#2E5266"/>
<path fill-rule="evenodd" clip-rule="evenodd" d="M51.1674 614.4C79.4262 614.4 102.335 591.477 102.335 563.2C102.335 534.923 79.4262 512 51.1674 512C22.9084 512 0 534.923 0 563.2C0 591.477 22.9084 614.4 51.1674 614.4ZM51.1674 599.04C70.9488 599.04 86.9846 582.994 86.9846 563.2C86.9846 543.406 70.9488 527.36 51.1674 527.36C31.3862 527.36 15.3502 543.406 15.3502 563.2C15.3502 582.994 31.3862 599.04 51.1674 599.04Z" fill="#D3D0CB"/>
<path d="M204.67 512H102.335V614.4H204.67V512Z" fill="#6E8898"/>
<path d="M102.335 512C129.476 512 155.505 522.789 174.697 541.992C193.888 561.196 204.67 587.242 204.67 614.4L102.335 512C102.335 539.158 113.117 565.204 132.308 584.408C151.5 603.611 177.529 614.4 204.67 614.4" fill="#9FB1BC"/>
<path d="M307.005 512H204.67V614.4H307.005V512Z" fill="#D3D0CB"/>
<path d="M204.67 614.4C204.67 587.242 215.451 561.196 234.643 541.992C253.834 522.789 279.864 512 307.005 512L204.67 614.4C231.811 614.4 257.84 603.611 277.031 584.408C296.223 565.204 307.005 539.158 307.005 512" fill="#9FB1BC"/>
<path d="M409.339 512H307.005V614.4H409.339V512Z" fill="#D3D0CB"/>
<path d="M358.172 614.4C386.431 614.4 409.339 591.477 409.339 563.2C409.339 534.923 386.431 512 358.172 512C329.913 512 307.005 534.923 307.005 563.2C307.005 591.477 329.913 614.4 358.172 614.4Z" fill="#FFA400"/>
<path d="M511.674 512H409.339V614.4H511.674V512Z" fill="#2E5266"/>
<path d="M409.339 614.4C409.339 600.953 411.986 587.637 417.129 575.213C422.272 562.789 429.81 551.501 439.313 541.992C448.815 532.484 460.097 524.941 472.512 519.795C484.928 514.649 498.235 512 511.674 512L409.339 614.4C436.48 614.4 462.51 603.611 481.701 584.408C500.893 565.204 511.674 539.158 511.674 512" fill="#6E8898"/>
<path d="M614.009 512H511.674V614.4H614.009V512Z" fill="#FFA400"/>
<path d="M562.842 512L614.009 563.2L562.842 614.4L511.674 563.2L562.842 512Z" fill="#FFA400"/>
<path d="M102.335 614.4H0V716.8H102.335V614.4Z" fill="#9FB1BC"/>
<path d="M51.1674 716.8C79.4264 716.8 102.335 693.877 102.335 665.6C102.335 637.323 79.4264 614.4 51.1674 614.4C22.9084 614.4 0 637.323 0 665.6C0 693.877 22.9084 716.8 51.1674 716.8Z" fill="#6E8898"/>
<path d="M204.67 614.4H102.335V716.8H204.67V614.4Z" fill="#D3D0CB"/>
<path d="M102.335 716.8C102.335 689.642 113.117 663.596 132.308 644.392C151.5 625.189 177.529 614.4 204.67 614.4L102.335 716.8C115.774 716.8 129.081 714.151 141.497 709.005C153.913 703.859 165.194 696.316 174.697 686.808C184.199 677.299 191.737 666.011 196.88 653.587C202.023 641.163 204.67 627.847 204.67 614.4" fill="#9FB1BC"/>
<path d="M307.005 614.4H204.67V716.8H307.005V614.4Z" fill="#D3D0CB"/>
<path d="M204.67 614.4C231.811 614.4 257.84 625.189 277.031 644.392C296.223 663.596 307.005 689.642 307.005 716.8L204.67 614.4C204.67 627.847 207.317 641.163 212.459 653.587C217.602 666.011 225.14 677.299 234.643 686.808C244.146 696.316 255.427 703.859 267.843 709.005C280.259 714.151 293.566 716.8 307.005 716.8" fill="#6E8898"/>
<path d="M409.339 614.4H307.005V716.8H409.339V614.4Z" fill="#D3D0CB"/>
<path d="M307.005 716.8C307.005 689.642 317.786 663.596 336.978 644.392C356.169 625.189 382.199 614.4 409.339 614.4L307.005 716.8C320.443 716.8 333.751 714.151 346.166 709.005C358.582 703.859 369.864 696.316 379.366 686.808C388.869 677.299 396.407 666.011 401.55 653.587C406.693 641.163 409.339 627.847 409.339 614.4" fill="#6E8898"/>
<path d="M511.674 614.4H409.339V716.8H511.674V614.4Z" fill="#2E5266"/>
<path fill-rule="evenodd" clip-rule="evenodd" d="M460.507 716.8C488.766 716.8 511.674 693.877 511.674 665.6C511.674 637.323 488.766 614.4 460.507 614.4C432.248 614.4 409.339 637.323 409.339 665.6C409.339 693.877 432.248 716.8 460.507 716.8ZM460.507 701.44C480.288 701.44 496.324 685.394 496.324 665.6C496.324 645.806 480.288 629.76 460.507 629.76C440.726 629.76 424.69 645.806 424.69 665.6C424.69 685.394 440.726 701.44 460.507 701.44Z" fill="#2E5266"/>
<path d="M614.009 614.4H511.674V716.8H614.009V614.4Z" fill="#9FB1BC"/>
<path d="M562.842 716.8C591.101 716.8 614.009 693.877 614.009 665.6C614.009 637.323 591.101 614.4 562.842 614.4C534.583 614.4 511.674 637.323 511.674 665.6C511.674 693.877 534.583 716.8 562.842 716.8Z" fill="#9FB1BC"/>
<path d="M102.335 716.8H0V819.2H102.335V716.8Z" fill="#FFA400"/>
<path fill-rule="evenodd" clip-rule="evenodd" d="M51.1674 819.2C79.4262 819.2 102.335 796.277 102.335 768C102.335 739.723 79.4262 716.8 51.1674 716.8C22.9084 716.8 0 739.723 0 768C0 796.277 22.9084 819.2 51.1674 819.2ZM51.1674 803.84C70.9488 803.84 86.9846 787.794 86.9846 768C86.9846 748.206 70.9488 732.16 51.1674 732.16C31.3862 732.16 15.3502 748.206 15.3502 768C15.3502 787.794 31.3862 803.84 51.1674 803.84Z" fill="#6E8898"/>
<path d="M204.67 716.8H102.335V819.2H204.67V716.8Z" fill="#D3D0CB"/>
<path fill-rule="evenodd" clip-rule="evenodd" d="M153.502 819.2C181.761 819.2 204.67 796.277 204.67 768C204.67 739.723 181.761 716.8 153.502 716.8C125.243 716.8 102.335 739.723 102.335 768C102.335 796.277 125.243 819.2 153.502 819.2ZM153.502 803.84C173.284 803.84 189.319 787.794 189.319 768C189.319 748.206 173.284 732.16 153.502 732.16C133.721 732.16 117.685 748.206 117.685 768C117.685 787.794 133.721 803.84 153.502 803.84Z" fill="#FFA400"/>
<path d="M307.005 716.8H204.67V819.2H307.005V716.8Z" fill="#FFA400"/>
<path d="M255.837 716.8L307.005 768L255.837 819.2L204.67 768L255.837 716.8Z" fill="#D3D0CB"/>
<path d="M409.339 716.8H307.005V819.2H409.339V716.8Z" fill="#D3D0CB"/>
<path fill-rule="evenodd" clip-rule="evenodd" d="M358.172 819.2C386.431 819.2 409.339 796.277 409.339 768C409.339 739.723 386.431 716.8 358.172 716.8C329.913 716.8 307.005 739.723 307.005 768C307.005 796.277 329.913 819.2 358.172 819.2ZM358.172 803.84C377.953 803.84 393.989 787.794 393.989 768C393.989 748.206 377.953 732.16 358.172 732.16C338.391 732.16 322.355 748.206 322.355 768C322.355 787.794 338.391 803.84 358.172 803.84Z" fill="#D3D0CB"/>
<path d="M511.674 716.8H409.339V819.2H511.674V716.8Z" fill="#2E5266"/>
<path d="M409.339 716.8C436.48 716.8 462.51 727.589 481.701 746.792C500.893 765.996 511.674 792.042 511.674 819.2L409.339 716.8C409.339 743.958 420.121 770.004 439.313 789.208C458.504 808.411 484.533 819.2 511.674 819.2" fill="#FFA400"/>
<path d="M614.009 716.8H511.674V819.2H614.009V716.8Z" fill="#D3D0CB"/>
<path d="M562.842 819.2C591.101 819.2 614.009 796.277 614.009 768C614.009 739.723 591.101 716.8 562.842 716.8C534.583 716.8 511.674 739.723 511.674 768C511.674 796.277 534.583 819.2 562.842 819.2Z" fill="#9FB1BC"/>
<path d="M102.335 819.2H0V921.6H102.335V819.2Z" fill="#FFA400"/>
<path d="M51.1674 819.2L102.335 870.4L51.1674 921.6L0 870.4L51.1674 819.2Z" fill="#2E5266"/>
<path d="M204.67 819.2H102.335V921.6H204.67V819.2Z" fill="#FFA400"/>
<path fill-rule="evenodd" clip-rule="evenodd" d="M153.502 921.6C181.761 921.6 204.67 898.677 204.67 870.4C204.67 842.123 181.761 819.2 153.502 819.2C125.243 819.2 102.335 842.123 102.335 870.4C102.335 898.677 125.243 921.6 153.502 921.6ZM153.502 906.24C173.284 906.24 189.319 890.194 189.319 870.4C189.319 850.606 173.284 834.56 153.502 834.56C133.721 834.56 117.685 850.606 117.685 870.4C117.685 890.194 133.721 906.24 153.502 906.24Z" fill="#D3D0CB"/>
<path d="M307.005 819.2H204.67V921.6H307.005V819.2Z" fill="#2E5266"/>
<path d="M255.837 819.2L307.005 870.4L255.837 921.6L204.67 870.4L255.837 819.2Z" fill="#9FB1BC"/>
<path d="M409.339 819.2H307.005V921.6H409.339V819.2Z" fill="#9FB1BC"/>
<path fill-rule="evenodd" clip-rule="evenodd" d="M358.172 921.6C386.431 921.6 409.339 898.677 409.339 870.4C409.339 842.123 386.431 819.2 358.172 819.2C329.913 819.2 307.005 842.123 307.005 870.4C307.005 898.677 329.913 921.6 358.172 921.6ZM358.172 906.24C377.953 906.24 393.989 890.194 393.989 870.4C393.989 850.606 377.953 834.56 358.172 834.56C338.391 834.56 322.355 850.606 322.355 870.4C322.355 890.194 338.391 906.24 358.172 906.24Z" fill="#FFA400"/>
<path d="M511.674 819.2H409.339V921.6H511.674V819.2Z" fill="#D3D0CB"/>
<path d="M460.507 819.2L511.674 870.4L460.507 921.6L409.339 870.4L460.507 819.2Z" fill="#FFA400"/>
<path d="M614.009 819.2H511.674V921.6H614.009V819.2Z" fill="#D3D0CB"/>
<path d="M562.842 921.6C591.101 921.6 614.009 898.677 614.009 870.4C614.009 842.123 591.101 819.2 562.842 819.2C534.583 819.2 511.674 842.123 511.674 870.4C511.674 898.677 534.583 921.6 562.842 921.6Z" fill="#6E8898"/>
<path d="M102.335 921.6H0V1024H102.335V921.6Z" fill="#D3D0CB"/>
<path fill-rule="evenodd" clip-rule="evenodd" d="M51.1674 1024C79.4262 1024 102.335 1001.08 102.335 972.8C102.335 944.523 79.4262 921.6 51.1674 921.6C22.9084 921.6 0 944.523 0 972.8C0 1001.08 22.9084 1024 51.1674 1024ZM51.1674 1008.64C70.9488 1008.64 86.9846 992.594 86.9846 972.8C86.9846 953.006 70.9488 936.96 51.1674 936.96C31.3862 936.96 15.3502 953.006 15.3502 972.8C15.3502 992.594 31.3862 1008.64 51.1674 1008.64Z" fill="#2E5266"/>
<path d="M204.67 921.6H102.335V1024H204.67V921.6Z" fill="#6E8898"/>
<path d="M102.335 1024C102.335 1010.55 104.982 997.237 110.125 984.813C115.267 972.39 122.805 961.101 132.308 951.592C141.811 942.084 153.092 934.541 165.508 929.395C177.924 924.249 191.231 921.6 204.67 921.6L102.335 1024C129.476 1024 155.505 1013.21 174.697 994.008C193.888 974.804 204.67 948.758 204.67 921.6" fill="#2E5266"/>
<path d="M307.005 921.6H204.67V1024H307.005V921.6Z" fill="#6E8898"/>
<path d="M255.837 921.6L307.005 972.8L255.837 1024L204.67 972.8L255.837 921.6Z" fill="#FFA400"/>
<path d="M409.339 921.6H307.005V1024H409.339V921.6Z" fill="#2E5266"/>
<path d="M358.172 921.6L409.339 972.8L358.172 1024L307.005 972.8L358.172 921.6Z" fill="#FFA400"/>
<path d="M511.674 921.6H409.339V1024H511.674V921.6Z" fill="#6E8898"/>
<path d="M409.339 921.6C422.778 921.6 436.085 924.249 448.501 929.395C460.917 934.541 472.198 942.084 481.701 951.592C491.204 961.101 498.742 972.39 503.884 984.813C509.027 997.237 511.674 1010.55 511.674 1024H409.339" fill="#9FB1BC"/>
<path d="M614.009 921.6H511.674V1024H614.009V921.6Z" fill="#6E8898"/>
<path d="M511.674 921.6C525.113 921.6 538.42 924.249 550.836 929.395C563.252 934.541 574.533 942.084 584.036 951.592C593.539 961.101 601.077 972.39 606.219 984.813C611.362 997.237 614.009 1010.55 614.009 1024L511.674 921.6C511.674 948.758 522.456 974.804 541.648 994.008C560.839 1013.21 586.868 1024 614.009 1024" fill="#6E8898"/>
<path d="M511.674 204.8C511.674 177.642 522.456 151.596 541.648 132.392C560.839 113.189 586.868 102.4 614.009 102.4V204.8" fill="#D3D0CB"/>
</g>
<defs>
<clipPath id="clip0_40_74">
<rect width="614" height="1024" fill="white"/>
</clipPath>
</defs>
</svg>
