<svg width="842" height="789" viewBox="0 0 842 789" fill="none" xmlns="http://www.w3.org/2000/svg">
<path d="M311.298 232.731L4.22705 322.84L57.0489 502.477L364.12 412.368L311.298 232.731Z" fill="white"/>
<path d="M57.0666 504.359C56.7495 504.354 56.4388 504.27 56.163 504.113C55.7455 503.856 55.4271 503.466 55.2594 503.005L2.43884 323.369C2.29858 322.891 2.35379 322.376 2.59239 321.938C2.83099 321.499 3.23355 321.173 3.71211 321.031L310.778 230.761C311.257 230.621 311.772 230.676 312.211 230.915C312.65 231.153 312.976 231.555 313.119 232.033L365.939 411.669C366.039 411.888 366.091 412.126 366.091 412.367C366.091 412.607 366.039 412.845 365.939 413.064C365.835 413.289 365.681 413.486 365.488 413.643C365.296 413.799 365.071 413.91 364.83 413.967L57.7649 504.236L57.0666 504.359ZM6.58724 324.108L58.3399 500.133L361.832 411.095L310.038 235.029L6.58724 324.108Z" fill="#231F20"/>
<path d="M191.829 395.421C191.612 395.46 191.389 395.46 191.172 395.421L3.58888 324.6C3.33968 324.528 3.10816 324.404 2.90875 324.238C2.70933 324.072 2.5463 323.867 2.42983 323.635C2.31336 323.404 2.24596 323.15 2.23181 322.891C2.21767 322.632 2.25707 322.373 2.3476 322.13C2.43813 321.887 2.57784 321.665 2.75799 321.479C2.93813 321.292 3.15486 321.144 3.39465 321.045C3.63445 320.946 3.89216 320.897 4.15171 320.901C4.41127 320.906 4.66709 320.964 4.90323 321.072L191.172 391.318L309.833 231.582C310.153 231.246 310.585 231.039 311.047 231.001C311.509 230.963 311.969 231.096 312.34 231.375C312.71 231.653 312.965 232.059 313.055 232.513C313.146 232.967 313.066 233.439 312.831 233.839L193.349 394.682C193.17 394.915 192.94 395.102 192.676 395.231C192.412 395.359 192.122 395.424 191.829 395.421Z" fill="#231F20"/>
<path d="M363.721 412.613C363.504 412.652 363.282 412.652 363.064 412.613L218.773 358.205C218.544 358.119 218.334 357.988 218.155 357.821C217.976 357.654 217.832 357.453 217.731 357.23C217.63 357.007 217.574 356.767 217.566 356.522C217.558 356.278 217.598 356.034 217.685 355.805C217.771 355.576 217.901 355.366 218.069 355.187C218.236 355.009 218.437 354.865 218.661 354.764C218.884 354.663 219.124 354.607 219.369 354.599C219.614 354.591 219.858 354.631 220.087 354.717L364.584 409.125C364.817 409.203 365.033 409.327 365.216 409.491C365.4 409.654 365.548 409.854 365.652 410.076C365.756 410.299 365.813 410.541 365.82 410.786C365.827 411.032 365.784 411.277 365.693 411.505C365.534 411.882 365.253 412.195 364.897 412.395C364.54 412.596 364.126 412.672 363.721 412.613Z" fill="#231F20"/>
<path d="M56.5334 502.882C56.1185 502.898 55.7114 502.767 55.3834 502.513C54.9912 502.219 54.732 501.782 54.6626 501.297C54.5933 500.812 54.7196 500.32 55.0137 499.928L146.895 376.136C147.041 375.939 147.224 375.773 147.434 375.647C147.644 375.521 147.876 375.438 148.118 375.401C148.361 375.365 148.608 375.377 148.845 375.436C149.083 375.495 149.306 375.601 149.503 375.746C149.7 375.892 149.866 376.074 149.993 376.284C150.119 376.494 150.202 376.726 150.239 376.968C150.275 377.21 150.263 377.457 150.204 377.694C150.145 377.931 150.039 378.155 149.894 378.352L58.1353 502.103C57.9585 502.36 57.718 502.567 57.4372 502.703C57.1565 502.84 56.8451 502.902 56.5334 502.882Z" fill="#231F20"/>
<path d="M372.837 193.078L94.8638 34.6229L1.97726 197.238L279.951 355.693L372.837 193.078Z" fill="white"/>
<path d="M279.932 357.549C279.601 357.551 279.275 357.466 278.987 357.302L1.04243 198.839C0.825681 198.723 0.634148 198.566 0.478997 198.376C0.323846 198.185 0.208184 197.966 0.138807 197.731C-0.046269 197.27 -0.046269 196.756 0.138807 196.295L93.2114 33.6869C93.4684 33.2585 93.8817 32.9465 94.3643 32.8164C94.8469 32.6863 95.3612 32.7483 95.799 32.9893L373.743 191.453C373.958 191.572 374.147 191.734 374.299 191.927C374.451 192.12 374.563 192.342 374.628 192.578C374.693 192.815 374.71 193.063 374.678 193.306C374.646 193.55 374.566 193.785 374.442 193.997L281.575 356.605C281.321 357.042 280.909 357.365 280.424 357.508L279.932 357.549ZM4.73905 196.5L279.439 353.117L370.458 193.792L95.5526 37.1745L4.73905 196.5Z" fill="#231F20"/>
<path d="M173.962 220.544C173.595 220.537 173.238 220.424 172.932 220.221C172.626 220.017 172.385 219.731 172.237 219.396L93.1293 35.3692C92.9367 34.9117 92.9321 34.3969 93.1166 33.9362C93.3011 33.4754 93.6598 33.1058 94.1151 32.9073C94.3411 32.8063 94.5851 32.7518 94.8326 32.7468C95.0801 32.7419 95.3261 32.7867 95.5559 32.8785C95.7858 32.9704 95.9948 33.1074 96.1707 33.2815C96.3465 33.4556 96.4855 33.6632 96.5795 33.892L175.153 216.605L372.799 191.248C373.043 191.207 373.292 191.217 373.532 191.277C373.772 191.337 373.997 191.445 374.193 191.595C374.39 191.745 374.553 191.933 374.674 192.149C374.794 192.364 374.869 192.602 374.894 192.848C374.928 193.091 374.914 193.338 374.852 193.575C374.79 193.813 374.681 194.035 374.532 194.23C374.383 194.425 374.196 194.588 373.983 194.71C373.771 194.832 373.535 194.91 373.292 194.941L174.414 220.503L173.962 220.544Z" fill="#231F20"/>
<path d="M280.712 356.236C280.343 356.233 279.984 356.123 279.677 355.919C279.371 355.715 279.131 355.425 278.987 355.087L218.116 213.487C217.923 213.03 217.918 212.515 218.103 212.054C218.287 211.593 218.646 211.224 219.101 211.025C219.559 210.833 220.075 210.828 220.536 211.012C220.997 211.197 221.367 211.555 221.566 212.01L282.437 353.61C282.629 354.067 282.634 354.582 282.45 355.043C282.265 355.503 281.906 355.873 281.451 356.071C281.221 356.184 280.968 356.241 280.712 356.236Z" fill="#231F20"/>
<path d="M2.72606 197.772C2.2691 197.742 1.83872 197.546 1.51496 197.223C1.19121 196.899 0.99614 196.469 0.96601 196.013C0.93588 195.556 1.07275 195.104 1.35117 194.741C1.62959 194.378 2.03058 194.128 2.4796 194.038L155.478 174.343C155.721 174.308 155.969 174.322 156.206 174.385C156.444 174.447 156.667 174.555 156.862 174.704C157.057 174.853 157.22 175.039 157.342 175.252C157.464 175.465 157.543 175.7 157.573 175.943C157.633 176.436 157.499 176.934 157.201 177.331C156.903 177.729 156.462 177.996 155.971 178.077L3.13679 197.731L2.72606 197.772Z" fill="#231F20"/>
<path d="M846.5 138.276H424.388V468.252H957.111V240.281C957.111 184.026 907.576 138.276 846.5 138.276Z" fill="#2E5266"/>
<path d="M957.11 470.057H424.345C423.851 470.046 423.381 469.843 423.036 469.49C422.69 469.137 422.497 468.663 422.497 468.17V138.276C422.497 137.787 422.692 137.317 423.038 136.971C423.385 136.624 423.855 136.43 424.345 136.43H846.499C908.52 136.43 958.999 183.083 958.999 240.404V468.252C958.969 468.734 958.757 469.188 958.407 469.523C958.057 469.857 957.594 470.048 957.11 470.057ZM426.194 466.364H955.221V240.281C955.221 185.011 906.466 140.041 846.499 140.041H426.194V466.364Z" fill="#231F20"/>
<path d="M534.957 244.384V468.129H313.735V244.384C313.663 217.762 323.669 192.097 341.747 172.538C351.698 161.688 363.802 153.028 377.287 147.108C390.772 141.188 405.344 138.139 420.074 138.153H429.521C450.924 138.317 471.779 144.925 489.365 157.112C506.95 169.3 520.449 186.501 528.097 206.471C529.661 210.482 530.951 214.595 531.958 218.78C532.106 219.191 532.203 219.618 532.246 220.052C534.104 228.028 535.014 236.195 534.957 244.384Z" fill="#231F20"/>
<path d="M534.957 470.303H313.735C313.191 470.303 312.668 470.087 312.283 469.702C311.898 469.318 311.682 468.796 311.682 468.252V244.384C311.693 215.669 323.116 188.133 343.441 167.829C363.767 147.524 391.33 136.112 420.075 136.102H429.522C451.333 136.303 472.578 143.066 490.485 155.509C508.391 167.952 522.129 185.497 529.905 205.855C531.488 209.864 532.792 213.977 533.807 218.165C533.98 218.697 534.09 219.248 534.136 219.806C536.106 227.85 537.099 236.102 537.093 244.384V468.129C537.111 468.415 537.068 468.702 536.967 468.971C536.867 469.24 536.711 469.485 536.509 469.69C536.308 469.895 536.066 470.056 535.798 470.161C535.531 470.267 535.244 470.315 534.957 470.303ZM315.789 466.2H532.986V244.384C533 236.412 532.076 228.465 530.234 220.709C530.2 220.374 530.132 220.044 530.028 219.724C530.013 219.587 530.013 219.45 530.028 219.313C529.046 215.229 527.798 211.213 526.291 207.291C518.761 187.702 505.496 170.835 488.227 158.889C470.957 146.944 450.485 140.476 429.481 140.328H420.075C406.384 140.306 392.823 142.982 380.169 148.202C367.515 153.422 356.015 161.084 346.329 170.749C336.642 180.415 328.959 191.893 323.719 204.528C318.478 217.163 315.784 230.707 315.789 244.384V466.2Z" fill="#231F20"/>
<path d="M313.776 468.252H534.957V664.054C534.957 690.759 524.338 716.37 505.435 735.254C486.533 754.137 460.895 764.745 434.163 764.745H414.53C387.797 764.745 362.16 754.137 343.257 735.254C324.355 716.37 313.735 690.759 313.735 664.054V468.252H313.776Z" fill="#FFA400"/>
<path d="M434.163 766.633H414.571C387.337 766.633 361.219 755.826 341.962 736.588C322.705 717.351 311.887 691.26 311.887 664.054V468.252C311.897 467.754 312.1 467.28 312.452 466.929C312.804 466.577 313.278 466.375 313.776 466.364H534.957C535.455 466.375 535.929 466.577 536.281 466.929C536.633 467.28 536.836 467.754 536.846 468.252V664.054C536.846 691.26 526.028 717.351 506.771 736.588C487.514 755.826 461.396 766.633 434.163 766.633ZM315.665 470.057V663.972C315.687 690.17 326.115 715.288 344.658 733.813C363.202 752.338 388.346 762.754 414.571 762.776H434.163C460.359 762.733 485.469 752.318 503.993 733.813C522.516 715.309 532.942 690.223 532.985 664.054V470.057H315.665Z" fill="#231F20"/>
<path d="M479.016 647.682H369.719C369.175 647.682 368.652 647.466 368.267 647.082C367.882 646.697 367.666 646.175 367.666 645.631C367.666 645.087 367.882 644.565 368.267 644.18C368.652 643.796 369.175 643.579 369.719 643.579H479.016C479.561 643.579 480.083 643.796 480.468 644.18C480.853 644.565 481.07 645.087 481.07 645.631C481.07 646.175 480.853 646.697 480.468 647.082C480.083 647.466 479.561 647.682 479.016 647.682Z" fill="#231F20"/>
<path d="M653.701 304.29C665.383 304.29 674.854 294.829 674.854 283.158C674.854 271.488 665.383 262.027 653.701 262.027C642.018 262.027 632.548 271.488 632.548 283.158C632.548 294.829 642.018 304.29 653.701 304.29Z" fill="white"/>
<path d="M653.701 306.136C649.141 306.144 644.68 304.8 640.884 302.274C637.089 299.748 634.129 296.153 632.38 291.945C630.631 287.738 630.171 283.106 631.059 278.637C631.947 274.168 634.142 270.063 637.367 266.841C640.592 263.619 644.702 261.426 649.175 260.539C653.649 259.652 658.285 260.112 662.497 261.859C666.709 263.606 670.308 266.563 672.836 270.355C675.365 274.146 676.711 278.602 676.703 283.159C676.692 289.249 674.265 295.087 669.954 299.394C665.643 303.701 659.798 306.125 653.701 306.136ZM653.701 263.915C649.891 263.915 646.167 265.043 642.999 267.158C639.831 269.272 637.362 272.278 635.904 275.794C634.446 279.311 634.065 283.18 634.808 286.913C635.551 290.646 637.386 294.075 640.08 296.766C642.774 299.457 646.207 301.29 649.943 302.033C653.68 302.775 657.553 302.394 661.073 300.937C664.593 299.481 667.602 297.014 669.718 293.85C671.835 290.685 672.965 286.965 672.965 283.159C672.965 280.631 672.467 278.129 671.499 275.794C670.53 273.459 669.112 271.338 667.323 269.551C665.534 267.764 663.41 266.347 661.073 265.38C658.736 264.413 656.231 263.915 653.701 263.915Z" fill="#231F20"/>
<path d="M653.7 263.915C653.202 263.904 652.728 263.702 652.376 263.35C652.023 262.999 651.821 262.525 651.811 262.027V2.05158C651.821 1.55814 652.025 1.08854 652.378 0.743405C652.731 0.398265 653.206 0.205053 653.7 0.20517C654.19 0.20517 654.66 0.399701 655.007 0.745972C655.354 1.09224 655.548 1.56187 655.548 2.05158V262.027C655.548 262.521 655.355 262.995 655.009 263.348C654.664 263.7 654.194 263.904 653.7 263.915Z" fill="#231F20"/>
<path d="M731.453 21.7057L653.701 56.6645V2.05157H731.453V21.7057Z" fill="white"/>
<path d="M653.701 58.7161C653.307 58.7151 652.922 58.6011 652.592 58.3878C652.297 58.2083 652.055 57.9547 651.889 57.6523C651.723 57.3499 651.64 57.0093 651.647 56.6645V2.05158C651.647 1.50746 651.863 0.985636 652.248 0.600891C652.634 0.216146 653.156 0 653.701 0H731.453C731.994 0.0105044 732.51 0.230029 732.893 0.612521C733.276 0.995012 733.496 1.51075 733.506 2.05158V21.6647C733.503 22.0639 733.385 22.4538 733.166 22.7882C732.948 23.1226 732.638 23.3877 732.274 23.5521L654.522 58.5109C654.267 58.6405 653.986 58.7107 653.701 58.7161ZM655.754 4.10315V53.341L729.399 20.2285V3.81593L655.754 4.10315Z" fill="#231F20"/>
<path d="M697.938 468.252H608.809V489.506H697.938V468.252Z" fill="white"/>
<path d="M697.936 491.352H608.806C608.312 491.353 607.838 491.159 607.485 490.814C607.132 490.469 606.928 489.999 606.917 489.506V468.252C606.927 467.754 607.13 467.28 607.482 466.929C607.834 466.577 608.309 466.375 608.806 466.364H697.936C698.434 466.375 698.908 466.577 699.26 466.929C699.612 467.28 699.815 467.754 699.825 468.252V489.506C699.815 489.999 699.611 490.469 699.258 490.814C698.904 491.159 698.43 491.353 697.936 491.352ZM610.696 487.619H696.046V470.057H610.696V487.619Z" fill="#231F20"/>
<path d="M623.142 786.943V489.506H676.784V786.943" fill="white"/>
<path d="M676.743 788.831C676.249 788.82 675.779 788.617 675.434 788.264C675.088 787.911 674.895 787.437 674.895 786.944V491.517H624.991V786.944C625.031 787.212 625.012 787.486 624.937 787.746C624.861 788.007 624.73 788.248 624.553 788.454C624.375 788.659 624.156 788.824 623.909 788.937C623.662 789.05 623.393 789.109 623.122 789.109C622.85 789.109 622.582 789.05 622.335 788.937C622.088 788.824 621.868 788.659 621.691 788.454C621.514 788.248 621.383 788.007 621.307 787.746C621.231 787.486 621.213 787.212 621.253 786.944V489.506C621.247 489.257 621.292 489.009 621.385 488.777C621.478 488.546 621.617 488.335 621.794 488.159C621.97 487.983 622.181 487.844 622.413 487.751C622.644 487.658 622.893 487.613 623.142 487.619H676.743C676.993 487.613 677.241 487.658 677.473 487.751C677.705 487.844 677.915 487.983 678.092 488.159C678.268 488.335 678.407 488.546 678.5 488.777C678.593 489.009 678.638 489.257 678.633 489.506V786.944C678.633 787.444 678.434 787.924 678.079 788.278C677.725 788.632 677.244 788.831 676.743 788.831Z" fill="#231F20"/>
<path d="M497.251 257.596L496.882 259.032L486.449 299.366L476.14 339.126L472.813 351.886L464.639 383.44L450.715 437.273L450.674 437.437L450.304 438.832L256.109 388.651L243.622 385.45L195.772 373.1L140.487 358.78L140.856 357.261L187.393 177.543L238.858 190.838L290.241 204.091L349.263 219.396L470.102 250.58L496.923 257.514L497.251 257.596Z" fill="white"/>
<path d="M450.305 440.72H449.853L139.994 360.667C139.515 360.532 139.107 360.218 138.855 359.79C138.602 359.362 138.525 358.853 138.639 358.369L139.049 356.851L185.545 177.092C185.694 176.623 185.998 176.217 186.407 175.943C186.633 175.842 186.878 175.79 187.126 175.79C187.374 175.79 187.619 175.842 187.845 175.943L497.375 255.914C497.905 256.051 498.37 256.371 498.689 256.816C499.016 257.235 499.164 257.766 499.1 258.293L466.446 383.891L452.112 439.283C452.019 439.692 451.789 440.057 451.46 440.318C451.132 440.579 450.724 440.721 450.305 440.72ZM142.787 357.467L448.99 436.575L495.034 258.95L188.707 179.8L142.787 357.467Z" fill="#231F20"/>
<path d="M312.092 336.253C311.809 336.255 311.529 336.193 311.273 336.073C311.017 335.952 310.792 335.775 310.613 335.556L185.914 178.733C185.639 178.339 185.524 177.854 185.594 177.379C185.664 176.903 185.914 176.472 186.291 176.174C186.668 175.875 187.145 175.732 187.625 175.773C188.104 175.814 188.55 176.036 188.871 176.394L312.667 332.314L496.553 256.037C497.011 255.87 497.516 255.886 497.963 256.083C498.409 256.279 498.762 256.64 498.948 257.091C499.134 257.542 499.138 258.047 498.959 258.5C498.781 258.954 498.434 259.321 497.991 259.524L312.79 336.335C312.554 336.351 312.318 336.323 312.092 336.253Z" fill="#231F20"/>
<path d="M450.839 439.201C450.562 439.197 450.291 439.132 450.042 439.012C449.794 438.891 449.575 438.718 449.401 438.504L353.33 317.83C353.055 317.436 352.94 316.951 353.01 316.476C353.08 316 353.33 315.569 353.707 315.27C354.084 314.972 354.561 314.829 355.041 314.87C355.521 314.911 355.966 315.133 356.287 315.491L452.194 436.165C452.352 436.359 452.469 436.581 452.54 436.82C452.611 437.06 452.634 437.31 452.607 437.558C452.58 437.806 452.505 438.047 452.384 438.265C452.264 438.484 452.102 438.677 451.906 438.832C451.59 439.049 451.221 439.176 450.839 439.201Z" fill="#231F20"/>
<path d="M140.857 359.272C140.422 359.28 139.999 359.135 139.66 358.862C139.322 358.59 139.091 358.206 139.007 357.78C138.924 357.354 138.994 356.912 139.204 356.532C139.415 356.152 139.753 355.858 140.159 355.702L282.437 296.453C282.669 296.346 282.919 296.288 283.174 296.281C283.428 296.273 283.681 296.318 283.918 296.411C284.155 296.504 284.371 296.644 284.552 296.822C284.734 297 284.877 297.214 284.974 297.449C285.071 297.684 285.12 297.936 285.117 298.191C285.113 298.445 285.059 298.696 284.956 298.929C284.854 299.161 284.705 299.371 284.519 299.545C284.333 299.719 284.114 299.853 283.875 299.94L141.432 359.026C141.252 359.133 141.059 359.216 140.857 359.272Z" fill="#231F20"/>
<path d="M534.957 244.384V349.917L528.672 348.727L481.602 339.413L433.752 329.893L388.817 321.113L338.831 311.224L328.85 309.255L326.221 308.721L313.899 306.218L264.611 296.453L249.414 293.457L258.573 247.092L265.596 211.764L285.846 109.8L429.603 138.276L468.5 145.908C482.045 151.381 494.317 159.584 504.549 170.003C514.782 180.423 522.756 192.837 527.974 206.471C529.538 210.482 530.828 214.595 531.835 218.78H532.205V220.257C534.061 228.165 534.985 236.262 534.957 244.384Z" fill="white"/>
<path d="M534.957 351.927H534.629L528.344 350.737L248.798 295.345C248.309 295.236 247.882 294.942 247.607 294.524C247.46 294.327 247.358 294.1 247.308 293.859C247.258 293.618 247.262 293.369 247.319 293.129L283.752 109.472C283.851 108.983 284.14 108.553 284.555 108.276C284.971 107.999 285.479 107.898 285.97 107.995L468.87 144.226C482.708 149.752 495.255 158.069 505.729 168.659C516.203 179.249 524.377 191.884 529.741 205.773C531.216 209.622 532.464 213.554 533.479 217.549C533.823 217.869 534.03 218.311 534.054 218.78V220.011C535.946 227.983 536.897 236.149 536.888 244.343V349.876C536.892 350.153 536.832 350.428 536.711 350.677C536.589 350.927 536.411 351.144 536.189 351.312C535.876 351.671 535.433 351.893 534.957 351.927ZM251.55 291.98L532.986 347.783V244.384C532.989 236.396 532.051 228.436 530.193 220.667C530.173 220.504 530.173 220.339 530.193 220.175V219.765C530.073 219.586 529.976 219.393 529.905 219.19C528.929 215.104 527.68 211.088 526.167 207.168C521.046 193.768 513.212 181.568 503.155 171.331C493.098 161.094 481.035 153.04 467.72 147.672L286.996 111.893L251.55 291.98Z" fill="#231F20"/>
<path d="M419.089 261.166C418.819 261.169 418.552 261.116 418.305 261.01C418.057 260.904 417.834 260.747 417.651 260.55L284.203 111.031C284.041 110.848 283.917 110.635 283.838 110.404C283.759 110.173 283.726 109.928 283.741 109.684C283.756 109.44 283.819 109.202 283.927 108.982C284.034 108.763 284.184 108.567 284.367 108.405C284.551 108.244 284.764 108.12 284.996 108.04C285.227 107.961 285.472 107.928 285.716 107.943C285.96 107.959 286.199 108.022 286.418 108.129C286.638 108.237 286.834 108.386 286.996 108.569L419.54 256.98L527.153 204.911C527.608 204.706 528.124 204.681 528.596 204.841C529.069 205.001 529.463 205.334 529.7 205.773C529.912 206.231 529.936 206.754 529.768 207.229C529.599 207.705 529.25 208.095 528.796 208.317L419.869 260.796C419.642 260.979 419.374 261.106 419.089 261.166Z" fill="#231F20"/>
<path d="M534.958 324.19C534.692 324.182 534.431 324.12 534.191 324.007C533.951 323.894 533.736 323.733 533.561 323.533L459.3 240.281C459.035 239.903 458.917 239.44 458.969 238.982C459.022 238.523 459.241 238.099 459.585 237.791C459.929 237.482 460.374 237.311 460.837 237.308C461.299 237.306 461.746 237.473 462.093 237.778L536.354 320.949C536.528 321.12 536.666 321.325 536.76 321.55C536.855 321.775 536.903 322.017 536.903 322.261C536.903 322.506 536.855 322.748 536.76 322.973C536.666 323.198 536.528 323.403 536.354 323.575C536.176 323.767 535.96 323.92 535.719 324.026C535.479 324.132 535.22 324.188 534.958 324.19Z" fill="#231F20"/>
<path d="M249.578 293.827C249.225 293.828 248.878 293.729 248.58 293.54C248.281 293.351 248.043 293.08 247.894 292.76C247.68 292.313 247.651 291.8 247.812 291.332C247.974 290.864 248.313 290.478 248.756 290.257L387.585 223.129C387.809 222.982 388.062 222.883 388.328 222.841C388.593 222.799 388.864 222.814 389.123 222.885C389.383 222.956 389.624 223.081 389.83 223.252C390.037 223.423 390.205 223.637 390.323 223.878C390.441 224.119 390.506 224.382 390.513 224.651C390.521 224.919 390.472 225.186 390.368 225.433C390.264 225.681 390.109 225.904 389.912 226.087C389.716 226.269 389.482 226.408 389.228 226.494L250.276 293.622C250.064 293.745 249.824 293.816 249.578 293.827Z" fill="#231F20"/>
<path d="M534.998 262.027H264.365V449.254H534.998V262.027Z" fill="white"/>
<path d="M534.957 451.142H264.365C263.867 451.131 263.392 450.929 263.04 450.577C262.688 450.225 262.486 449.751 262.475 449.254V262.027C262.475 261.527 262.674 261.047 263.029 260.693C263.383 260.339 263.863 260.14 264.365 260.14H534.957C535.206 260.134 535.455 260.179 535.686 260.272C535.918 260.365 536.129 260.504 536.305 260.68C536.482 260.857 536.621 261.067 536.714 261.298C536.807 261.53 536.852 261.778 536.846 262.027V449.254C536.846 449.502 536.797 449.747 536.702 449.976C536.607 450.205 536.468 450.413 536.293 450.589C536.117 450.764 535.909 450.903 535.68 450.998C535.451 451.093 535.205 451.142 534.957 451.142ZM266.213 447.367H533.191V263.874H266.213V447.367Z" fill="#231F20"/>
<path d="M424.346 384.547C423.933 384.55 423.53 384.421 423.196 384.178L263.009 263.545C262.752 263.341 262.553 263.072 262.434 262.766C262.304 262.541 262.233 262.287 262.229 262.027C262.223 261.778 262.268 261.53 262.361 261.298C262.454 261.067 262.593 260.857 262.77 260.68C262.946 260.504 263.157 260.365 263.389 260.272C263.621 260.179 263.869 260.134 264.118 260.14C264.381 260.142 264.64 260.198 264.88 260.304C265.12 260.41 265.336 260.563 265.515 260.755L424.1 380.321L533.848 297.725C534.041 297.541 534.271 297.401 534.522 297.313C534.773 297.224 535.04 297.19 535.306 297.212C535.571 297.234 535.829 297.312 536.062 297.44C536.295 297.568 536.498 297.745 536.659 297.957C536.819 298.17 536.932 298.413 536.992 298.673C537.051 298.932 537.055 299.201 537.003 299.462C536.95 299.723 536.844 299.97 536.689 300.187C536.535 300.403 536.337 300.585 536.107 300.72L425.455 384.137C425.139 384.389 424.75 384.533 424.346 384.547Z" fill="#231F20"/>
<path d="M534.957 412.285C534.557 412.282 534.169 412.153 533.848 411.915L459.916 356.359C459.521 356.057 459.26 355.613 459.191 355.122C459.122 354.63 459.249 354.131 459.546 353.733C459.692 353.533 459.876 353.364 460.089 353.237C460.301 353.11 460.537 353.027 460.782 352.992C461.027 352.958 461.277 352.973 461.516 353.037C461.755 353.1 461.979 353.212 462.175 353.363L535.902 408.92C536.207 409.163 536.429 409.493 536.539 409.867C536.648 410.24 536.64 410.639 536.514 411.007C536.388 411.376 536.151 411.696 535.835 411.925C535.52 412.154 535.141 412.279 534.751 412.285H534.957Z" fill="#231F20"/>
<path d="M264.324 449.541C263.937 449.528 263.565 449.396 263.255 449.165C262.946 448.933 262.716 448.612 262.595 448.245C262.474 447.879 262.469 447.484 262.579 447.114C262.69 446.744 262.912 446.417 263.215 446.177L386.435 353.322C386.835 353.088 387.307 353.008 387.762 353.099C388.217 353.189 388.623 353.444 388.902 353.814C389.181 354.184 389.314 354.643 389.276 355.105C389.237 355.567 389.03 355.999 388.694 356.318L265.474 449.172C265.137 449.41 264.736 449.539 264.324 449.541Z" fill="#231F20"/>
<path d="M417.516 278.54L128.985 416.886L210.084 585.677L498.614 447.33L417.516 278.54Z" fill="white"/>
<path d="M210.024 587.612C209.672 587.609 209.328 587.508 209.03 587.319C208.733 587.13 208.494 586.863 208.34 586.546L127.261 417.742C127.076 417.281 127.076 416.767 127.261 416.306C127.435 415.847 127.771 415.468 128.206 415.239L416.747 276.922C417.2 276.711 417.717 276.688 418.187 276.857C418.656 277.026 419.039 277.374 419.253 277.824L500.127 446.587C500.312 447.048 500.312 447.562 500.127 448.023C500.048 448.255 499.924 448.468 499.762 448.651C499.599 448.834 499.402 448.984 499.182 449.09L210.846 587.407C210.59 587.533 210.31 587.603 210.024 587.612ZM131.451 417.824L210.887 583.222L496.019 446.505L416.624 281.312L131.451 417.824Z" fill="#231F20"/>
<path d="M325.482 458.445H325.113L128.576 418.809C128.335 418.764 128.105 418.673 127.9 418.539C127.695 418.406 127.519 418.233 127.381 418.03C127.244 417.828 127.148 417.6 127.099 417.361C127.05 417.121 127.05 416.874 127.097 416.634C127.141 416.389 127.234 416.156 127.371 415.948C127.507 415.74 127.684 415.562 127.891 415.424C128.098 415.286 128.331 415.191 128.576 415.145C128.821 415.099 129.072 415.103 129.315 415.157L324.455 454.506L415.844 277.783C416.106 277.407 416.496 277.138 416.942 277.028C417.387 276.917 417.858 276.973 418.266 277.184C418.673 277.395 418.99 277.748 419.157 278.175C419.323 278.602 419.328 279.076 419.171 279.507L327.166 457.46C327.006 457.765 326.763 458.019 326.465 458.193C326.167 458.367 325.827 458.454 325.482 458.445Z" fill="#231F20"/>
<path d="M497.909 447.9H497.539L346.347 417.414C345.858 417.315 345.427 417.026 345.15 416.611C344.873 416.195 344.772 415.687 344.869 415.198C344.913 414.953 345.006 414.72 345.142 414.512C345.279 414.304 345.456 414.125 345.663 413.987C345.87 413.849 346.103 413.755 346.348 413.709C346.592 413.663 346.844 413.667 347.087 413.721L498.278 444.207C498.734 444.303 499.137 444.564 499.412 444.939C499.687 445.314 499.813 445.777 499.767 446.239C499.722 446.702 499.507 447.131 499.164 447.445C498.821 447.759 498.374 447.936 497.909 447.941V447.9Z" fill="#231F20"/>
<path d="M209.367 586.217C209.068 586.208 208.775 586.138 208.504 586.012C208.283 585.899 208.086 585.744 207.925 585.555C207.763 585.366 207.641 585.147 207.565 584.91C207.489 584.674 207.46 584.425 207.48 584.178C207.5 583.93 207.569 583.689 207.683 583.468L278.329 446.587C278.565 446.148 278.962 445.817 279.437 445.664C279.912 445.512 280.427 445.548 280.876 445.766C281.315 446.002 281.646 446.399 281.799 446.873C281.952 447.347 281.916 447.862 281.697 448.31L210.886 585.191C210.744 585.48 210.529 585.726 210.263 585.906C209.996 586.086 209.687 586.193 209.367 586.217Z" fill="#231F20"/>
<path d="M623.142 535.954L676.784 575.385V489.506H623.142V535.954Z" fill="#231F20"/>
<path d="M676.744 577.437C676.318 577.44 675.902 577.311 675.552 577.067L621.869 537.636C621.617 537.443 621.411 537.194 621.269 536.91C621.127 536.626 621.051 536.313 621.048 535.995V489.506C621.048 488.962 621.264 488.44 621.649 488.055C622.034 487.671 622.557 487.454 623.102 487.454H676.744C677.288 487.454 677.811 487.671 678.196 488.055C678.581 488.44 678.797 488.962 678.797 489.506V575.385C678.807 575.766 678.707 576.142 678.511 576.469C678.315 576.796 678.029 577.06 677.688 577.231C677.396 577.38 677.071 577.451 676.744 577.437ZM625.155 534.928L674.69 571.364V491.558H625.196L625.155 534.928Z" fill="#231F20"/>
</svg>
